<svg width="17px" height="15px" viewBox="0 0 17 15" version="1.1" xmlns:xlink="http://www.w3.org/1999/xlink" xmlns="http://www.w3.org/2000/svg">
  <desc>Created with Lunacy</desc>
  <g id="Attachments">
    <path d="M15.2703 1.36047C13.9448 0.0348837 11.782 0.0348837 10.4564 1.36047L3.30523 8.54651C2.50291 9.34884 2.50291 10.6395 3.30523 11.4419C4.10756 12.2442 5.39826 12.2442 6.20058 11.4419L10.6308 6.97674C10.9099 6.69767 10.9099 6.27907 10.6308 6C10.3517 5.72093 9.93314 5.72093 9.65407 6L5.18895 10.4302C4.94477 10.6744 4.52616 10.6744 4.28198 10.4302C4.03779 10.186 4.03779 9.76744 4.28198 9.52326L11.4331 2.33721C12.2006 1.56977 13.4913 1.56977 14.2587 2.33721C15.0262 3.10465 15.0262 4.39535 14.2587 5.16279L7.10756 12.3488C5.78198 13.6744 3.65407 13.6744 2.36337 12.3488C1.03779 11.0233 1.03779 8.89535 2.36337 7.60465L8.78198 1.18605C9.06105 0.906977 9.06105 0.488372 8.78198 0.209302C8.50291 -0.0697674 8.0843 -0.0697674 7.80523 0.209302L1.38663 6.59302C-0.462209 8.44186 -0.462209 11.4767 1.38663 13.3256C3.23546 15.1744 6.27035 15.1744 8.11919 13.3256L15.2703 6.17442C16.5959 4.84884 16.5959 2.68605 15.2703 1.36047L15.2703 1.36047Z" transform="translate(0.18313953 0.10465116)" id="Shape" fill="#8E8E93" fill-rule="evenodd" stroke="none" />
  </g>
</svg>