<svg width="15" height="15" viewBox="0 0 15 15" fill="none" xmlns="http://www.w3.org/2000/svg">
<g clip-path="url(#clip0)">
<path fill-rule="evenodd" clip-rule="evenodd" d="M6.82094 6.88148H2.05962L3.08852 5.79339C3.32377 5.54452 3.31285 5.15216 3.06427 4.91722C2.81447 4.68108 2.41916 4.69379 2.18634 4.94205L0.181057 7.0626L0.180072 7.06366L0.168552 7.07584C0.144149 7.10158 0.13278 7.13352 0.113681 7.16198C0.0899599 7.19717 0.0619936 7.22888 0.0457761 7.2687C-0.0153089 7.41826 -0.0152339 7.58537 0.0458524 7.73478C0.0616924 7.77369 0.0891274 7.80434 0.112167 7.83878C0.131721 7.86807 0.143544 7.90084 0.168554 7.92718L0.179997 7.93929L0.181134 7.94043L2.18634 10.0586C2.30881 10.1881 2.47251 10.2529 2.63743 10.2529C2.79022 10.2529 2.94422 10.1966 3.06427 10.0834C3.31285 9.84844 3.32377 9.45547 3.08852 9.20661L2.06068 8.12155H6.82094C7.16411 8.12155 7.44179 7.84423 7.44179 7.50151C7.44179 7.1588 7.16411 6.88148 6.82094 6.88148Z" fill="#8E8E93"/>
<path fill-rule="evenodd" clip-rule="evenodd" d="M12.5493 0.260294C12.5129 0.253633 12.4778 0.25 12.4414 0.25H7.2029C7.15682 0.25 7.11074 0.256055 7.11438 0.260294C5.75989 0.341431 4.70007 1.57242 4.70007 3.06317C4.70007 3.40286 4.95836 3.67957 5.27728 3.67957C5.59498 3.67957 5.85327 3.40286 5.85327 3.06317C5.85327 2.20275 6.45351 1.51126 7.26596 1.4822L12.4802 1.48826C13.2453 1.51126 13.8456 2.20275 13.8456 3.06317V11.9368C13.8456 12.7966 13.2453 13.4893 12.4377 13.5196L7.22109 13.5136C6.45472 13.4893 5.85448 12.7966 5.85448 11.9368C5.85448 11.5971 5.59619 11.321 5.27728 11.321C4.95836 11.321 4.70007 11.5971 4.70007 11.9368C4.70007 13.4688 5.79264 14.7016 7.14591 14.7391C7.19078 14.7488 7.22958 14.75 7.25868 14.75H12.496C12.5432 14.75 12.5845 14.7452 12.582 14.7415C13.9377 14.6604 15 13.4288 15 11.9368V3.06317C14.9988 1.53246 13.9074 0.299651 12.5493 0.260294ZM12.4414 0.473431V0.473507V0.473431ZM7.25747 13.7414H7.25739L7.25747 13.7412V13.7414Z" fill="#8E8E93"/>
</g>
<defs>
<clipPath id="clip0">
<rect width="15" height="15" fill="white"/>
</clipPath>
</defs>
</svg>
