<svg width="18" height="12" viewBox="0 0 18 12" fill="none" xmlns="http://www.w3.org/2000/svg">
<path fill-rule="evenodd" clip-rule="evenodd" d="M0 0.826755C0 1.23417 0.330295 1.56446 0.737705 1.56446H16.5738C16.9812 1.56446 17.3115 1.23417 17.3115 0.826755C17.3115 0.419321 16.9812 0.0890503 16.5738 0.0890503H0.737705C0.330295 0.0890503 0 0.419321 0 0.826755ZM0 4.25299C0 4.6604 0.330295 4.99069 0.737705 4.99069H16.5738C16.9812 4.99069 17.3115 4.6604 17.3115 4.25299C17.3115 3.84556 16.9812 3.51528 16.5738 3.51528H0.737705C0.330295 3.51528 0 3.84556 0 4.25299ZM0 7.67922C0 8.08663 0.330295 8.41692 0.737705 8.41692H16.5738C16.9812 8.41692 17.3115 8.08663 17.3115 7.67922C17.3115 7.27178 16.9812 6.94151 16.5738 6.94151H0.737705C0.330295 6.94151 0 7.27178 0 7.67922ZM0 11.1054C0 11.5129 0.330295 11.8432 0.737705 11.8432H7.13115C7.53856 11.8432 7.86885 11.5129 7.86885 11.1054C7.86885 10.698 7.53856 10.3677 7.13115 10.3677H0.737705C0.330295 10.3677 0 10.698 0 11.1054Z" fill="#8E8E93"/>
</svg>
