<svg width="23" height="15" viewBox="0 0 23 15" fill="none" xmlns="http://www.w3.org/2000/svg">
<circle cx="19.5" cy="3" r="3" fill="#8E8E93"/>
<g clip-path="url(#clip0)">
<path fill-rule="evenodd" clip-rule="evenodd" d="M9.7969 3H0.834356C0.314043 3 0.182887 3.14062 0.304715 3.49219C0.375028 3.69844 0.698465 3.87187 0.890653 3.97031C1.40628 4.24219 8.56873 8.14687 8.83597 8.2875C9.10311 8.42812 9.37503 8.49375 9.7969 8.49375C10.2188 8.49375 10.4906 8.42812 10.7578 8.2875C10.9355 8.19398 14.1621 6.43608 16.4559 5.18873C16.0122 4.5727 15.75 3.81717 15.75 3H9.7969Z" fill="#8E8E93"/>
<path fill-rule="evenodd" clip-rule="evenodd" d="M12.9937 8.31094L16.8469 12.6469C16.9406 12.7406 16.9827 12.8531 16.9312 12.9094C16.875 12.961 16.7531 12.9329 16.6546 12.8438L12.0328 8.9438C11.3343 9.39385 10.8421 9.70317 10.7578 9.75005C10.3968 9.93286 10.1438 9.9563 9.79688 9.9563C9.45 9.9563 9.19683 9.93286 8.83594 9.75005C8.74687 9.70317 8.25933 9.3938 7.56089 8.9438L2.93902 12.8438C2.84527 12.9375 2.71875 12.9657 2.66245 12.9094C2.60625 12.8578 2.64844 12.7406 2.74219 12.6469L6.59062 8.31094C4.30781 6.83438 0.820312 4.37813 0.435891 4.18125C0.0234375 3.97031 0 4.21875 0 4.41094C0 4.60317 0 14.0203 0 14.0203C0 14.4563 0.642141 15 1.10156 15H9.79688H18.4922C18.9515 15 19.5 14.4516 19.5 14.0203C19.5 14.0203 19.5 9.59541 19.5 6.75C18.4816 6.75 17.5586 6.34345 16.8829 5.68458C15.6641 6.52374 14.1731 7.54805 12.9937 8.31094Z" fill="#8E8E93"/>
</g>
<defs>
<clipPath id="clip0">
<rect width="20" height="12" fill="white" transform="translate(0 3)"/>
</clipPath>
</defs>
</svg>
