<svg width="15px" height="15px" viewBox="0 0 15 15" version="1.1" xmlns:xlink="http://www.w3.org/1999/xlink" xmlns="http://www.w3.org/2000/svg">
  <desc>Created with Lunacy</desc>
  <path d="M4.51807 0C2.02444 0 0 2.02444 0 4.51807L0 10.3012C0 12.7948 2.02444 14.8193 4.51807 14.8193L10.3012 14.8193C12.7948 14.8193 14.8193 12.7948 14.8193 10.3012L14.8193 4.51807C14.8193 2.02444 12.7948 2.05458e-14 10.3012 2.05458e-14L4.51807 2.05458e-14L4.51807 0ZM4.51807 1.08434L10.3012 1.08434C12.2129 1.08434 13.7349 2.6064 13.7349 4.51807L13.7349 10.3012C13.7349 12.2129 12.2129 13.7349 10.3012 13.7349L4.51807 13.7349C2.6064 13.7349 1.08434 12.2129 1.08434 10.3012L1.08434 4.51807C1.08434 2.6064 2.6064 1.08434 4.51807 1.08434L4.51807 1.08434ZM3.61446 6.14458C2.9158 6.14458 2.3494 6.71096 2.3494 7.40964C2.3494 8.10832 2.9158 8.6747 3.61446 8.6747C4.31315 8.6747 4.87952 8.10832 4.87952 7.40964C4.87952 6.71096 4.31315 6.14458 3.61446 6.14458L3.61446 6.14458ZM7.40964 6.14458C6.71098 6.14458 6.14458 6.71096 6.14458 7.40964C6.14458 8.10832 6.71098 8.6747 7.40964 8.6747C8.10833 8.6747 8.6747 8.10832 8.6747 7.40964C8.6747 6.71096 8.10833 6.14458 7.40964 6.14458L7.40964 6.14458ZM11.2048 6.14458C10.5061 6.14458 9.93976 6.71096 9.93976 7.40964C9.93976 8.10832 10.5061 8.6747 11.2048 8.6747C11.9035 8.6747 12.4699 8.10832 12.4699 7.40964C12.4699 6.71096 11.9035 6.14458 11.2048 6.14458L11.2048 6.14458Z" id="Shape" fill="#8E8E93" fill-rule="evenodd" stroke="none" />
</svg>