<svg width="12px" height="12px" viewBox="0 0 12 12" version="1.1" xmlns:xlink="http://www.w3.org/1999/xlink" xmlns="http://www.w3.org/2000/svg">
  <desc>Created with Lunacy</desc>
  <defs>
    <path d="M0 3.999L0 4.001Q0 4.19746 0.0192563 4.39297Q0.0385126 4.58848 0.0768396 4.78117Q0.115167 4.97385 0.172196 5.16185Q0.229224 5.34985 0.304406 5.53135Q0.379587 5.71285 0.472197 5.88612Q0.564807 6.05938 0.673953 6.22272Q0.783099 6.38607 0.907731 6.53794Q1.03236 6.6898 1.17128 6.82872Q1.3102 6.96764 1.46206 7.09227Q1.61393 7.2169 1.77727 7.32605Q1.94062 7.43519 2.11388 7.5278Q2.28715 7.62041 2.46865 7.69559Q2.65015 7.77078 2.83815 7.8278Q3.02615 7.88483 3.21883 7.92316Q3.41152 7.96149 3.60703 7.98074Q3.80254 8 3.999 8L4.001 8Q4.19746 8 4.39297 7.98074Q4.58848 7.96149 4.78117 7.92316Q4.97385 7.88483 5.16185 7.8278Q5.34985 7.77078 5.53135 7.69559Q5.71285 7.62041 5.88612 7.5278Q6.05938 7.43519 6.22272 7.32605Q6.38607 7.2169 6.53794 7.09227Q6.6898 6.96764 6.82872 6.82872Q6.96764 6.6898 7.09227 6.53794Q7.2169 6.38607 7.32605 6.22272Q7.43519 6.05938 7.5278 5.88612Q7.62041 5.71285 7.69559 5.53135Q7.77078 5.34985 7.8278 5.16185Q7.88483 4.97385 7.92316 4.78117Q7.96149 4.58848 7.98074 4.39297Q8 4.19746 8 4.001L8 3.999Q8 3.80254 7.98074 3.60703Q7.96149 3.41152 7.92316 3.21883Q7.88483 3.02615 7.8278 2.83815Q7.77078 2.65015 7.69559 2.46865Q7.62041 2.28715 7.5278 2.11388Q7.43519 1.94062 7.32605 1.77727Q7.2169 1.61393 7.09227 1.46206Q6.96764 1.3102 6.82872 1.17128Q6.6898 1.03236 6.53794 0.907731Q6.38607 0.783099 6.22272 0.673953Q6.05938 0.564807 5.88612 0.472197Q5.71285 0.379587 5.53135 0.304406Q5.34985 0.229224 5.16185 0.172196Q4.97385 0.115167 4.78117 0.0768396Q4.58848 0.0385126 4.39297 0.0192563Q4.19746 0 4.001 0L3.999 0Q3.80254 0 3.60703 0.0192563Q3.41152 0.0385126 3.21883 0.0768396Q3.02615 0.115167 2.83815 0.172196Q2.65015 0.229224 2.46865 0.304406Q2.28715 0.379587 2.11388 0.472197Q1.94062 0.564807 1.77727 0.673953Q1.61393 0.783099 1.46206 0.907731Q1.3102 1.03236 1.17128 1.17128Q1.03236 1.3102 0.907731 1.46206Q0.783099 1.61393 0.673953 1.77727Q0.564807 1.94062 0.472197 2.11388Q0.379587 2.28715 0.304406 2.46865Q0.229224 2.65015 0.172196 2.83815Q0.115167 3.02615 0.0768396 3.21883Q0.0385126 3.41152 0.0192563 3.60703Q0 3.80254 0 3.999Z" transform="translate(2 2)" id="path_1" />
  </defs>
  <g id="Rectangle-5">
    <use xlink:href="#path_1" fill="none" stroke="#9200FF" stroke-width="4" />
  </g>
</svg>