<svg width="13px" height="15px" viewBox="0 0 13 15" version="1.1" xmlns:xlink="http://www.w3.org/1999/xlink" xmlns="http://www.w3.org/2000/svg">
  <desc>Created with Lunacy</desc>
  <g id="trash">
    <path d="M7.54112 0.995948L11.2086 0.995948C11.7246 0.995948 12.143 1.4131 12.1433 1.92724L12.1433 3.45802L0 3.45802L0 1.92724C0 1.4131 0.418707 0.995948 0.934138 0.995948L4.60397 0.995948L4.60397 0.465259C4.60397 0.465259 4.58793 0 5.05448 0L7.0575 0C7.52457 0 7.54112 0.465259 7.54112 0.465259L7.54112 0.995948ZM0.933879 13.9684C0.933879 14.4825 1.35207 14.8991 1.86776 14.8991L10.275 14.8991C10.7928 14.8991 11.2107 14.4828 11.2107 13.9684L11.2107 4.38853L0.933879 4.38853L0.933879 13.9684ZM2.32862 5.31155L3.7756 5.31155L3.7756 13.0585C3.7756 13.4584 3.45103 13.7816 3.05198 13.7816C2.65293 13.7816 2.32862 13.4584 2.32862 13.0585L2.32862 5.31155ZM6.79759 5.31155L5.34828 5.31155L5.34828 13.0585C5.34828 13.4584 5.67259 13.7816 6.07293 13.7816C6.47328 13.7816 6.79759 13.4584 6.79759 13.0585L6.79759 5.31155ZM8.34698 5.31155L9.795 5.31155L9.795 13.0585C9.795 13.4584 9.47017 13.7816 9.07215 13.7816C8.67155 13.7816 8.34698 13.4584 8.34698 13.0585L8.34698 5.31155Z" transform="translate(0.13551724 0.050431035)" id="Combined-Shape" fill="#8E8E93" fill-rule="evenodd" stroke="none" />
  </g>
</svg>