<svg width="12" height="15" viewBox="0 0 12 15" fill="none" xmlns="http://www.w3.org/2000/svg">
<path fill-rule="evenodd" clip-rule="evenodd" d="M8.44995 7.44999H6.39995V5.14999C6.39995 4.79999 6.09995 4.54999 5.79995 4.54999C5.49995 4.54999 5.19995 4.84999 5.19995 5.14999V8.09999C5.19995 8.44999 5.49995 8.69999 5.79995 8.69999H8.44995C8.79995 8.69999 9.04995 8.39999 9.04995 8.09999C9.04995 7.79999 8.79995 7.44999 8.44995 7.44999Z" fill="#8E8E93"/>
<path fill-rule="evenodd" clip-rule="evenodd" d="M9.85002 12.35C11.1 11.25 11.95 9.65001 11.95 7.85001C11.95 4.60001 9.30002 1.95001 6.05002 1.95001C2.80002 1.95001 0.150024 4.60001 0.150024 7.85001C0.150024 9.55001 0.850024 11.05 2.00002 12.15L0.950024 13.95C0.750024 14.25 0.850024 14.65 1.15002 14.8C1.25002 14.85 1.35002 14.9 1.45002 14.9C1.65002 14.9 1.85002 14.8 2.00002 14.6L3.00002 12.95C3.90002 13.5 4.95002 13.8 6.05002 13.8C7.05002 13.8 8.05002 13.55 8.85002 13.1L9.75002 14.6C9.85003 14.8 10.05 14.9 10.3 14.9C10.4 14.9 10.5 14.85 10.6 14.8C10.9 14.6 11 14.25 10.8 13.95L9.85002 12.35ZM1.35002 7.85001C1.35002 5.30001 3.45002 3.20001 6.00002 3.20001C8.55002 3.20001 10.65 5.30001 10.65 7.85001C10.65 10.4 8.55002 12.5 6.00002 12.5C3.45002 12.5 1.35002 10.4 1.35002 7.85001Z" fill="#8E8E93"/>
<path fill-rule="evenodd" clip-rule="evenodd" d="M7.94997 1.35001C8.99997 1.65001 9.99997 2.25001 10.75 3.05001C10.85 3.15001 11.05 3.25001 11.2 3.25001C11.35 3.25001 11.5 3.20001 11.65 3.05001C11.9 2.80001 11.9 2.40001 11.65 2.15001C10.7 1.20001 9.54997 0.550006 8.29997 0.150006C7.94997 0.0500059 7.59997 0.250006 7.49997 0.550006C7.44997 0.900006 7.64997 1.25001 7.94997 1.35001Z" fill="#8E8E93"/>
<path fill-rule="evenodd" clip-rule="evenodd" d="M0.800049 3.25001C0.950049 3.25001 1.10005 3.20001 1.25005 3.05001C2.05005 2.25001 3.00005 1.70001 4.05005 1.35001C4.40005 1.25001 4.55005 0.900011 4.45005 0.550011C4.35005 0.200011 4.00005 0.0500109 3.65005 0.150011C2.40005 0.550011 1.25005 1.20001 0.300049 2.15001C0.0500488 2.40001 0.0500488 2.80001 0.300049 3.05001C0.450049 3.20001 0.600049 3.25001 0.800049 3.25001Z" fill="#8E8E93"/>
</svg>
