<svg width="15" height="15" viewBox="0 0 15 15" fill="none" xmlns="http://www.w3.org/2000/svg">
<path fill-rule="evenodd" clip-rule="evenodd" d="M6.58763 0.371134C6.35567 0.123711 6.03093 0 5.70619 0H1.23711C0.556701 0 0 0.556701 0 1.23711V5.67526C0 6 0.123711 6.30928 0.35567 6.54124L8.39691 14.5825C8.64433 14.8299 8.95361 14.9381 9.27835 14.9381C9.58763 14.9381 9.91237 14.8144 10.1443 14.5825L14.5825 10.1753C15.0773 9.71134 15.0773 8.92268 14.5979 8.4433L6.58763 0.371134Z" fill="#8E8E93"/>
<path fill-rule="evenodd" clip-rule="evenodd" d="M3.09283 1.85568C2.41241 1.85568 1.85571 2.41238 1.85571 3.0928C1.85571 3.77321 2.41241 4.32991 3.09283 4.32991C3.77324 4.32991 4.32994 3.77321 4.32994 3.0928C4.32994 2.41238 3.77324 1.85568 3.09283 1.85568ZM3.09283 3.71135C2.75262 3.71135 2.47427 3.433 2.47427 3.0928C2.47427 2.75259 2.75262 2.47424 3.09283 2.47424C3.43303 2.47424 3.71138 2.75259 3.71138 3.0928C3.71138 3.433 3.43303 3.71135 3.09283 3.71135Z" fill="white"/>
</svg>
