<svg width="15" height="15" viewBox="0 0 15 15" fill="none" xmlns="http://www.w3.org/2000/svg">
<path fill-rule="evenodd" clip-rule="evenodd" d="M14.8993 14.1672L10.9567 10.2244C11.8729 9.14189 12.4264 7.74253 12.4264 6.21322C12.4264 2.7818 9.64464 0 6.21322 0C2.7818 0 0 2.7818 0 6.21322C0 9.64464 2.7818 12.4264 6.21322 12.4264C7.74253 12.4264 9.14189 11.8729 10.2244 10.9565L14.1672 14.8993C14.3014 15.0336 14.5212 15.0336 14.6553 14.8993L14.8993 14.6553C15.0336 14.521 15.0336 14.3014 14.8993 14.1672ZM1.03554 6.21322C1.03554 3.35824 3.35824 1.03554 6.21322 1.03554C9.06819 1.03554 11.3909 3.35824 11.3909 6.21322C11.3909 9.06819 9.06819 11.3909 6.21322 11.3909C3.35824 11.3909 1.03554 9.06819 1.03554 6.21322Z" fill="#8E8E93"/>
</svg>
