<svg width="17px" height="14px" viewBox="0 0 17 14" version="1.1" xmlns:xlink="http://www.w3.org/1999/xlink" xmlns="http://www.w3.org/2000/svg">
  <desc>Created with Lunacy</desc>
  <g id="sent">
    <path d="M14.8143 0.0996254L0.591899 5.60461C-0.20691 5.91386 -0.195719 6.38867 0.61659 6.66009L4.19444 7.85484L5.58423 12.1914C5.7505 12.7385 6.21678 12.8553 6.62054 12.4509L8.52617 10.5419C8.53434 10.5337 8.5418 10.5257 8.54962 10.5177L12.0395 13.1564C12.7231 13.6733 13.4233 13.4085 13.5956 12.5681L15.9535 1.06541C16.1258 0.225033 15.6131 -0.209454 14.8143 0.0996254L14.8143 0.0996254ZM12.5039 3.17709L6.58572 8.72772L6.58554 8.7279L6.58501 8.72843C6.4811 8.82631 6.39548 9.01442 6.38322 9.1567L6.38322 9.1567L6.22566 10.9794C6.14608 11.8862 6.00344 11.5705 5.82919 11.0259L4.69679 7.5383L12.1147 2.78719C13.262 2.07222 13.262 2.4838 12.5039 3.17709L12.5039 3.17709Z" id="Shape" fill="#8E8E93" fill-rule="evenodd" stroke="none" />
  </g>
</svg>